# xmcd
#
# Track frame offsets:
#	150
#	15917
#	30284
#	45794
#	56734
#	70649
#	84434
#	95995
#	111010
#	127014
#	141785
#	155010
#	168744
#	178555
#	193027
#	207429
#	223423
#	239407
#	251604
#	266205
#
# Disc length: 3736 seconds
#
# Revision: 0
# Processed by: cddbd v1.5.2PL0 Copyright (c) Steve Scherf et al.
# Submitted via: audiograbber 1.83.01
#
DISCID=220e9614
DTITLE=Sampler - Hit Rocket
DYEAR=1978
DGENRE=Pop
TTITLE0=Amanda Lear  - Follow Me
TTITLE1=La Bionda  - One For Me, One For You
TTITLE2=Herman Brood and His Wild Romance  - Saturday Night
TTITLE3=Renée  - Sweet Nothings
TTITLE4=Barry and Eileen  - Summerwine
TTITLE5=Octopus   - South Of The Border
TTITLE6=The Surfers  - Windsurfin'
TTITLE7=Robert Palmer  - Best Of Both Worlds
TTITLE8=F.M.  - In The Valley Back Home
TTITLE9=Theo Diepenbrock  - Oh Darling
TTITLE10=Luisa Fernandez  - Lay Love On You
TTITLE11=The O'Jays  - Use Ta Be My Girl
TTITLE12=Jimmy "Bo" Horne  - Dance Across The Floor
TTITLE13=Massada   - Latin Dance
TTITLE14=Rainbow Train  - Heaven On Earth
TTITLE15=The Motors  - Airport
TTITLE16=Lee Towers  - Frankie
TTITLE17=Jacques Van Eijck  - Doing The Bop
TTITLE18=Billy Joel  - She's Always A Woman
TTITLE19=Mother's Finest  - Piece Of The Rock
EXTD=
EXTT0=
EXTT1=
EXTT2=
EXTT3=
EXTT4=
EXTT5=
EXTT6=
EXTT7=
EXTT8=
EXTT9=
EXTT10=
EXTT11=
EXTT12=
EXTT13=
EXTT14=
EXTT15=
EXTT16=
EXTT17=
EXTT18=
EXTT19=
PLAYORDER=
